# xmcd
#
# Track frame offsets:
#	150
#	13340
#	24140
#	37357
#	52152
#	63872
#	75315
#	88832
#	101755
#	114892
#	129545
#	147235
#	161462
#	171770
#	184062
#	193847
#	203000
#	217507
#	229340
#	242835
#
# Disc length: 3402
#
# Revision: 3
# Processed by: cddbd v1.5.1PL0 Copyright (c) Steve Scherf et al.
# Submitted via: MusicWizard 7.0.2
# Normalized: r2:TSWAP
#
DISCID=100d4814
DTITLE=Various Artist - Mega Country (9/10)
DYEAR=1997
DGENRE=Country
TTITLE0=Kenny Rogers - Ruby, Don't Take Your Love To Town
TTITLE1=Billie Jo Spears - Misty Blue
TTITLE2=Roy Clark - Come Live With Me
TTITLE3=George Jones - Who's Gonna Fill Their Shoes
TTITLE4=Patsy Cline - A Poor Man's Roses Or A Rich Man's Gold
TTITLE5=Freddy Fender - Before The Next Tear Drop Falls
TTITLE6=The Bellamy Brothers - Do You Love As Good As You Look
TTITLE7=Lorrie Morgan and George Morgan - I'm Completely Satisfied With You
TTITLE8=Johnny Tillotson - Send Me The Pillow That You Dream On
TTITLE9=Don Gibson - I Can't Stop Lovin' You
TTITLE10=Crystal Gayle - Our Love Is On The Fault Line
TTITLE11=T. Graham Brown - Come Hell Or High Water
TTITLE12=Freddy Weller - The Roadmaster
TTITLE13=Merle Haggard - Working Man Blues
TTITLE14=Jeannie C. Riley - The Girl Most Likely
TTITLE15=Roger Miller - Chug-A-Lug
TTITLE16=Pete Drake - Lay Lady Lay
TTITLE17=Box Car Willie - Six Days On The Road
TTITLE18=Becky Hobbs - Mama's Green Eyes And Daddy's Wild Hair
TTITLE19=Charlie Rich - Behind Closed Doors
EXTD=
EXTT0=
EXTT1=
EXTT2=
EXTT3=
EXTT4=
EXTT5=
EXTT6=
EXTT7=
EXTT8=
EXTT9=
EXTT10=
EXTT11=
EXTT12=
EXTT13=
EXTT14=
EXTT15=
EXTT16=
EXTT17=
EXTT18=
EXTT19=
PLAYORDER=
